Coordinates
version=1
nRows=13
nColumns=40
inDegrees=yes

Units are S.I. units (second, meters, Newtons, ...)
If the header above contains a line with 'inDegrees', this indicates whether rotational values are in degrees (yes) or radians (no).

endheader
time	pelvis_tilt	pelvis_list	pelvis_rotation	pelvis_tx	pelvis_ty	pelvis_tz	hip_flexion_r	hip_adduction_r	hip_rotation_r	knee_angle_r	knee_angle_r_beta	ankle_angle_r	subtalar_angle_r	mtp_angle_r	hip_flexion_l	hip_adduction_l	hip_rotation_l	knee_angle_l	knee_angle_l_beta	ankle_angle_l	subtalar_angle_l	mtp_angle_l	lumbar_extension	lumbar_bending	lumbar_rotation	arm_flex_r	arm_add_r	arm_rot_r	elbow_flex_r	pro_sup_r	wrist_flex_r	wrist_dev_r	arm_flex_l	arm_add_l	arm_rot_l	elbow_flex_l	pro_sup_l	wrist_flex_l	wrist_dev_l
      4.42500000	    -10.82588180	     -2.07170839	      8.29898527	     -0.39262123	      0.89412445	     -0.83939096	     36.80825583	    -21.83295131	    -14.75913909	     58.52154671	      1.02139367	     26.81908611	      0.00000000	      0.00000000	     43.49924187	    -13.26162649	      4.60837106	     58.56772647	      1.02219966	     24.98507558	      0.00000000	      0.00000000	    -18.25302134	     -2.46788608	      0.25471333	    -39.67509081	    -54.04349236	     19.44885116	    114.94938462	     87.63924302	      0.00000000	      0.00000000	    -36.04880670	    -54.42512804	     32.25206429	    102.03422287	     88.09763534	      0.00000000	      0.00000000
      4.43000000	    -11.84858651	     -1.86455669	      7.91360639	     -0.39755328	      0.88124227	     -0.83882493	     40.61366113	    -22.36306644	    -12.73013094	     62.19101015	      1.08543789	     27.10467271	      0.00000000	      0.00000000	     46.52700708	    -13.28180083	      4.38408506	     61.80171745	      1.07864345	     25.38640997	      0.00000000	      0.00000000	    -18.04214839	     -2.76439870	      0.57961394	    -39.01415223	    -54.07823110	     19.95574658	    114.66999967	     87.69841024	      0.00000000	      0.00000000	    -35.31173478	    -54.69053017	     32.83198496	    101.85147963	     88.12495793	      0.00000000	      0.00000000
      4.43500000	    -12.82714423	     -1.65081732	      7.52051761	     -0.40209461	      0.86868288	     -0.83844927	     44.07339508	    -22.77851404	    -11.07044658	     65.33109309	      1.14024268	     27.54981833	      0.00000000	      0.00000000	     49.10415708	    -13.40060215	      3.94122180	     64.48054261	      1.12539777	     26.28577520	      0.00000000	      0.00000000	    -17.87175749	     -3.04032916	      0.86833206	    -38.40676602	    -54.18707739	     20.53522886	    114.40746416	     87.69938838	      0.00000000	      0.00000000	    -34.59801466	    -54.92752069	     33.64184348	    101.72707096	     88.10634129	      0.00000000	      0.00000000
      4.44000000	    -13.62617467	     -1.09765613	      6.97291166	     -0.40685076	      0.85649005	     -0.83831013	     47.25457739	    -23.37036731	     -9.39841014	     68.16265274	      1.18966272	     28.05373719	      0.00000000	      0.00000000	     51.12669366	    -13.41529313	      3.14667667	     66.83941692	      1.16656790	     27.41066336	      0.00000000	      0.00000000	    -17.97096906	     -3.65145186	      1.19356467	    -37.81890054	    -54.42714711	     21.10732429	    114.22493848	     87.77623851	      0.00000000	      0.00000000	    -33.75605778	    -55.26000167	     34.55554412	    101.79630475	     88.12835256	      0.00000000	      0.00000000
      4.44500000	    -14.41947946	     -0.74918018	      6.30443317	     -0.41093478	      0.84449756	     -0.83756698	     50.09428232	    -23.61242762	     -8.05471889	     70.59803768	      1.23216820	     28.77420586	      0.00000000	      0.00000000	     53.02434580	    -13.86716280	      2.37909779	     68.94962673	      1.20339800	     28.65893145	      0.00000000	      0.00000000	    -17.93287692	     -4.12123454	      1.80496076	    -37.35004732	    -54.63369955	     21.74270382	    114.09759122	     87.80791144	      0.00000000	      0.00000000	    -32.66872721	    -55.77363341	     35.91539196	    101.99810672	     88.12430014	      0.00000000	      0.00000000
      4.45000000	    -15.04248656	     -0.70185156	      6.00219227	     -0.41494720	      0.83309190	     -0.83734689	     52.23967738	    -23.87845660	     -7.40181180	     72.65859253	      1.26813167	     29.67652356	      0.00000000	      0.00000000	     54.82980402	    -14.26621941	      2.21689313	     70.89874002	      1.23741645	     29.77477588	      0.00000000	      0.00000000	    -18.11824721	     -4.14966348	      2.14599581	    -36.99540215	    -54.90244496	     22.19136159	    113.93965163	     87.78714832	      0.00000000	      0.00000000	    -31.55272558	    -56.21235076	     37.15568449	    102.33137134	     88.12342787	      0.00000000	      0.00000000
      4.45500000	     -9.20455712	     -8.18567466	      4.72817476	     -0.41012087	      0.83707677	     -0.82523164	     43.39993163	    -15.17650693	    -13.36722970	     71.08541586	      1.24067456	     31.92359189	      0.00000000	      0.00000000	     52.01376727	    -23.71862141	      6.53659785	     72.26871064	      1.26132695	     30.77268603	      0.00000000	      0.00000000	    -24.51784302	      2.83497200	      6.74670036	    -35.00511717	    -55.04496269	     23.47611149	    113.03007011	     87.94936763	      0.00000000	      0.00000000	    -28.65620909	    -56.13544705	     39.43929873	    101.64621557	     88.27421130	      0.00000000	      0.00000000
      4.46000000	    -10.08127089	     -7.91160881	      4.25470451	     -0.41392029	      0.82555614	     -0.82437307	     45.54682670	    -15.76672136	    -12.84959705	     73.11219152	      1.27604847	     33.14719682	      0.00000000	      0.00000000	     53.93054654	    -23.92300605	      6.40540129	     74.07049458	      1.29277401	     31.81749283	      0.00000000	      0.00000000	    -24.33391778	      2.44306771	      6.98483349	    -34.27643568	    -55.53625568	     24.53437912	    113.02049375	     87.97658490	      0.00000000	      0.00000000	    -27.59973860	    -56.78918041	     40.82721293	    102.12649673	     88.27502876	      0.00000000	      0.00000000
      4.46500000	    -11.65916107	     -7.04910793	      3.58939829	     -0.41852679	      0.81294993	     -0.82316469	     48.79296983	    -16.74879324	    -11.66779015	     75.32776371	      1.31471749	     34.03995307	      0.00000000	      0.00000000	     56.35860323	    -23.70239660	      5.79416685	     75.84363269	      1.32372111	     32.56249967	      0.00000000	      0.00000000	    -23.46401388	      1.33693206	      7.08523128	    -33.76229741	    -55.70769537	     25.25285491	    113.13111383	     87.96516411	      0.00000000	      0.00000000	    -26.97488671	    -57.55494595	     41.64811469	    102.78966846	     88.26684952	      0.00000000	      0.00000000
      4.47000000	    -11.94426867	     -7.28769894	      3.31005151	     -0.42128498	      0.80302097	     -0.82230219	     49.93105452	    -16.92059614	    -11.86943477	     76.87802764	      1.34177470	     35.21760145	      0.00000000	      0.00000000	     57.94509315	    -24.34673887	      6.11851729	     77.61504690	      1.35463812	     33.42485693	      0.00000000	      0.00000000	    -23.86985214	      1.55060731	      7.35952063	    -33.32073574	    -56.18538340	     25.70695480	    113.39199001	     87.96042348	      0.00000000	      0.00000000	    -26.67589476	    -57.97606184	     42.00017750	    103.32173582	     88.28550251	      0.00000000	      0.00000000
      4.47500000	    -13.88554137	     -5.72405679	      2.38521094	     -0.42592736	      0.78989808	     -0.82126803	     54.12841956	    -18.06364144	     -9.59562921	     79.20415617	      1.38237331	     35.82963081	      0.00000000	      0.00000000	     60.38309683	    -23.88408588	      4.70054185	     79.39696401	      1.38573844	     34.01676870	      0.00000000	      0.00000000	    -22.43886206	     -0.29060450	      7.24161746	    -32.36526414	    -56.46818880	     27.06950577	    113.50158439	     87.93002162	      0.00000000	      0.00000000	    -26.23896329	    -58.88486894	     42.89999325	    103.99808691	     88.26387320	      0.00000000	      0.00000000
      4.48000000	    -14.69767060	     -5.23606742	      1.91122270	     -0.42930026	      0.77931037	     -0.82043788	     56.45662637	    -18.47739790	     -8.62097832	     81.05300261	      1.41464176	     36.39534260	      0.00000000	      0.00000000	     62.20052117	    -24.02669040	      4.46425250	     81.15074857	      1.41634775	     34.47306986	      0.00000000	      0.00000000	    -22.22965659	     -0.84429943	      7.27943169	    -31.72726581	    -56.82062022	     27.83522856	    113.75726125	     87.93026390	      0.00000000	      0.00000000	    -26.07330435	    -59.41269381	     43.18736322	    104.58522026	     88.25873227	      0.00000000	      0.00000000
      4.48500000	    -14.54501921	     -5.44696842	      1.77163167	     -0.43138675	      0.77097346	     -0.82000276	     57.23299642	    -18.61155927	     -8.62831389	     82.61336551	      1.44187523	     36.91649538	      0.00000000	      0.00000000	     63.28130398	    -24.56121233	      4.84445015	     82.82887471	      1.44563658	     35.02662664	      0.00000000	      0.00000000	    -23.10208522	     -0.55211471	      7.36992173	    -31.38344733	    -57.16445797	     27.95101599	    114.02466531	     87.92959229	      0.00000000	      0.00000000	    -25.81633454	    -59.68200662	     43.26257782	    104.86599367	     88.27063258	      0.00000000	      0.00000000
